<svg id="그룹_10289" data-name="그룹 10289" xmlns="http://www.w3.org/2000/svg" xmlns:xlink="http://www.w3.org/1999/xlink" width="167" height="30" viewBox="0 0 167 30">
  <defs>
    <radialGradient id="radial-gradient" cx="0.5" cy="0.5" r="0.409" gradientTransform="translate(-0.355) scale(1.711 1)" gradientUnits="objectBoundingBox">
      <stop offset="0" stop-color="#00bbb4"/>
      <stop offset="0.54" stop-color="#046eb6"/>
      <stop offset="1" stop-color="#181d61"/>
    </radialGradient>
  </defs>
  <path id="패스_761" data-name="패스 761" d="M7.569,17.32,0,35.465H5.173l1.274-3.244h6.9l1.274,3.244h5.3L12.334,17.32ZM7.9,28.338l2.012-5.1,1.988,5.1Z" transform="translate(0 -11.483)" fill="#231916"/>
  <path id="패스_762" data-name="패스 762" d="M83.8,27.224,76.463,17.7H71.85V35.717h4.893V25.832l7.643,9.885h4.307V17.7H83.8Z" transform="translate(-47.638 -11.735)" fill="#231916"/>
  <path id="패스_763" data-name="패스 763" d="M213.477,29.1l-4.054-11.4h-5.5l7.211,18.145h4.586L222.956,17.7h-5.4Z" transform="translate(-134.793 -11.735)" fill="#231916"/>
  <path id="패스_764" data-name="패스 764" d="M278.013,28.613h8.563V24.675h-8.563V21.921h9.452V17.7H273.12V35.717h14.474V31.472h-9.58Z" transform="translate(-180.551 -11.735)" fill="#231916"/>
  <path id="패스_765" data-name="패스 765" d="M347.025,23.878v-.051a5.66,5.66,0,0,0-1.58-4.2c-1.2-1.208-3.083-1.93-5.81-1.93H331.2V35.717h4.944V30.26h2.19l3.592,5.456h5.682l-4.256-6.28a5.711,5.711,0,0,0,3.67-5.562Zm-4.944.334c0,1.314-.994,2.138-2.649,2.138h-3.289V22h3.262c1.631,0,2.676.722,2.676,2.161Z" transform="translate(-218.937 -11.735)" fill="#231916"/>
  <path id="패스_766" data-name="패스 766" d="M398.07,23.9c-2.5-.565-3.11-.926-3.11-1.749V22.1c0-.67.586-1.157,1.783-1.157a8.7,8.7,0,0,1,4.994,1.776l2.473-3.525a11.163,11.163,0,0,0-7.34-2.392c-4.28,0-6.9,2.419-6.9,5.764v.051c0,3.678,2.932,4.76,6.726,5.635,2.446.592,3.033.977,3.033,1.749v.051c0,.772-.714,1.235-2.066,1.235a9.19,9.19,0,0,1-5.786-2.161l-2.753,3.318a12.439,12.439,0,0,0,8.357,2.984c4.334,0,7.211-2.188,7.211-5.866v-.051c0-3.372-2.548-4.709-6.625-5.611Z" transform="translate(-257.116 -11.139)" fill="#231916"/>
  <path id="패스_767" data-name="패스 767" d="M454.913,31.472V28.613h8.563V24.675h-8.563V21.921h9.452V17.7H450.02V35.717h14.474V31.472Z" transform="translate(-297.494 -11.735)" fill="#231916"/>
  <path id="패스_768" data-name="패스 768" d="M139.15,24.121,156.579,30V0L139.15,5.862Zm6.14-6.374V3.817l4.937,2.244V23.935l-4.937,2.244V17.748Z" transform="translate(-91.982)" fill="url(#radial-gradient)"/>
</svg>
